<?xml version="1.0" encoding="UTF-8" standalone="no"?>
<!-- Created with Inkscape (http://www.inkscape.org/) -->

<svg
   xmlns:dc="http://purl.org/dc/elements/1.1/"
   xmlns:cc="http://creativecommons.org/ns#"
   xmlns:rdf="http://www.w3.org/1999/02/22-rdf-syntax-ns#"
   xmlns:svg="http://www.w3.org/2000/svg"
   xmlns="http://www.w3.org/2000/svg"
   xmlns:sodipodi="http://sodipodi.sourceforge.net/DTD/sodipodi-0.dtd"
   xmlns:inkscape="http://www.inkscape.org/namespaces/inkscape"
   width="55.242821mm"
   height="15.00002mm"
   viewBox="0 0 55.242821 15.00002"
   version="1.1"
   id="svg8"
   inkscape:version="0.92.4 (f8dce91, 2019-08-02)"
   sodipodi:docname="20200217_logo_kreski.svg">
  <defs
     id="defs2" />
  <sodipodi:namedview
     id="base"
     pagecolor="#ffffff"
     bordercolor="#666666"
     borderopacity="1.0"
     inkscape:pageopacity="0.0"
     inkscape:pageshadow="2"
     inkscape:zoom="2"
     inkscape:cx="184.75445"
     inkscape:cy="126.48391"
     inkscape:document-units="mm"
     inkscape:current-layer="layer1"
     showgrid="false"
     inkscape:window-width="1853"
     inkscape:window-height="1025"
     inkscape:window-x="67"
     inkscape:window-y="27"
     inkscape:window-maximized="1"
     inkscape:lockguides="true"
     showguides="true"
     inkscape:guide-bbox="true"
     inkscape:snap-page="true" />
  <metadata
     id="metadata5">
    <rdf:RDF>
      <cc:Work
         rdf:about="">
        <dc:format>image/svg+xml</dc:format>
        <dc:type
           rdf:resource="http://purl.org/dc/dcmitype/StillImage" />
        <dc:title></dc:title>
      </cc:Work>
    </rdf:RDF>
  </metadata>
  <g
     inkscape:label="Layer 1"
     inkscape:groupmode="layer"
     id="layer1"
     transform="translate(-81.083062,1321.2478)">
    <g
       aria-label="ealthl"
       style="font-style:normal;font-variant:normal;font-weight:normal;font-stretch:normal;font-size:5.29166651px;line-height:1.25;font-family:monospace;-inkscape-font-specification:monospace;letter-spacing:0px;word-spacing:0px;fill:#000000;fill-opacity:1;stroke:none;stroke-width:0.26458332"
       id="text1225" />
    <path
       cx="436.92398"
       cy="31.9303"
       r="12.5"
       id="path4321"
       style="opacity:1;fill:#00ffff;fill-opacity:1;stroke:none;stroke-width:0.14464721;stroke-linecap:round;stroke-miterlimit:4;stroke-dasharray:none;stroke-opacity:1;paint-order:markers fill stroke"
       d=""
       inkscape:connector-curvature="0" />
    <g
       id="g954">
      <g
         transform="matrix(0.94971352,0,0,0.94971352,4.7382481,-291.8403)"
         id="g2526">
        <path
           style="fill:#7de3d5;fill-opacity:1;stroke:none;stroke-width:2.83231068;stroke-linecap:round;stroke-miterlimit:4;stroke-dasharray:none;stroke-opacity:1;paint-order:markers fill stroke"
           d="m 103.39228,-1080.7953 a 4.2245872,4.2245872 0 0 0 -4.225062,4.2246 4.2245872,4.2245872 0 0 0 4.224552,4.2245 4.2245872,4.2245872 0 0 0 5.1e-4,0 h 4.22404 v -0.7043 -3.5202 a 4.2245872,4.2245872 0 0 0 -4.22404,-4.2246 z m 0,0.8909 a 3.333402,3.333402 0 0 1 3.33313,3.3337 v 3.3331 h -3.33313 a 3.333402,3.333402 0 0 1 -5.1e-4,0 3.333402,3.333402 0 0 1 -3.33313,-3.3331 3.333402,3.333402 0 0 1 3.33364,-3.3337 z"
           id="path2520"
           inkscape:connector-curvature="0"
           inkscape:export-xdpi="200"
           inkscape:export-ydpi="200" />
        <g
           aria-label="+"
           style="font-style:normal;font-variant:normal;font-weight:normal;font-stretch:normal;font-size:3.52777767px;line-height:1.25;font-family:Lato;-inkscape-font-specification:Lato;text-align:start;letter-spacing:0px;word-spacing:0px;text-anchor:start;fill:#7de3d5;fill-opacity:1;stroke:none;stroke-width:0.26458332"
           id="text2524">
          <path
             d="m 103.78279,-1076.0385 v 1.4056 h -0.77859 v -1.4056 h -1.37459 v -0.7717 h 1.37459 v -1.4056 h 0.77859 v 1.4056 h 1.38493 v 0.7717 z"
             style="font-style:normal;font-variant:normal;font-weight:bold;font-stretch:normal;font-size:7.05555534px;font-family:Arial;-inkscape-font-specification:'Arial Bold';fill:#7de3d5;fill-opacity:1;stroke-width:0.26458332"
             id="path886"
             inkscape:connector-curvature="0" />
        </g>
      </g>
      <g
         transform="translate(2.3785878,-71.393889)"
         aria-label="h"
         style="font-style:normal;font-variant:normal;font-weight:100;font-stretch:normal;font-size:15.97033691px;line-height:1.25;font-family:Manjari;-inkscape-font-specification:'Manjari Thin';letter-spacing:0px;word-spacing:0px;fill:#666666;fill-opacity:1;stroke:#666666;stroke-width:0.24590048;stroke-miterlimit:4;stroke-dasharray:none;stroke-opacity:1"
         id="text2530">
        <path
           d="m 78.827424,-1249.4502 v 10.2544 c 0,0.1637 0.132567,0.2963 0.296325,0.2963 0.163758,0 0.288526,-0.1326 0.288526,-0.2963 v -3.5247 c 0,-1.2945 0.881176,-2.5578 1.824736,-3.1816 0.389901,-0.2573 0.842186,-0.4055 1.294471,-0.4055 1.746756,0 2.261425,1.622 2.261425,3.4077 l -0.0078,3.6963 c -0.0078,0.1949 0.148162,0.2885 0.296324,0.2885 0.148162,0 0.288527,-0.094 0.288527,-0.2807 l 0.0078,-3.7041 c 0,-2.1366 -0.74861,-4.0004 -2.854074,-4.0004 -0.592649,0 -1.130712,0.195 -1.606391,0.5069 -0.655034,0.4289 -1.138511,1.0449 -1.505018,1.7468 v -4.7958 c 0.0078,-0.195 -0.140364,-0.2885 -0.288526,-0.2885 -0.148162,0 -0.296325,0.093 -0.296325,0.2807 z"
           style="font-style:normal;font-variant:normal;font-weight:100;font-stretch:normal;font-family:Manjari;-inkscape-font-specification:'Manjari Thin';fill:#666666;fill-opacity:1;stroke:#666666;stroke-width:0.24590048;stroke-miterlimit:4;stroke-dasharray:none;stroke-opacity:1"
           id="path889"
           inkscape:connector-curvature="0" />
      </g>
      <g
         transform="translate(2.3785878,-71.393889)"
         aria-label="e"
         style="font-style:normal;font-variant:normal;font-weight:100;font-stretch:normal;font-size:15.97033691px;line-height:1.25;font-family:Manjari;-inkscape-font-specification:'Manjari Thin';letter-spacing:0px;word-spacing:0px;fill:#666666;fill-opacity:1;stroke:#666666;stroke-width:0.24590048;stroke-miterlimit:4;stroke-dasharray:none;stroke-opacity:1"
         id="text2534">
        <path
           d="m 91.332328,-1238.8135 c 1.1775,0 2.331606,-0.5381 3.080216,-1.4505 0.03899,-0.047 0.07018,-0.1247 0.07018,-0.1871 0,-0.1638 -0.124768,-0.2963 -0.288527,-0.2963 -0.07798,0 -0.187152,0.047 -0.23394,0.1091 -0.631639,0.772 -1.637583,1.2399 -2.635729,1.2399 -1.871524,0 -3.314157,-1.5206 -3.446724,-3.2985 l 6.573728,-0.01 c 0.296325,0 0.304123,-0.312 0.304123,-0.6083 0,-2.0197 -1.65318,-3.6417 -3.633876,-3.6417 -2.16005,0 -3.836624,1.8716 -3.836624,4.0004 0,2.2536 1.785746,4.1408 4.047171,4.1408 z m 2.838477,-4.4917 v 0.016 l -6.285201,0.01 c 0.155961,-1.6532 1.481623,-3.088 3.228379,-3.088 1.668776,0 3.056822,1.3646 3.056822,3.0646 z"
           style="font-style:normal;font-variant:normal;font-weight:100;font-stretch:normal;font-family:Manjari;-inkscape-font-specification:'Manjari Thin';fill:#666666;fill-opacity:1;stroke:#666666;stroke-width:0.24590048;stroke-miterlimit:4;stroke-dasharray:none;stroke-opacity:1"
           id="path892"
           inkscape:connector-curvature="0" />
      </g>
      <g
         transform="translate(2.3785878,-71.393889)"
         aria-label="l"
         style="font-style:normal;font-variant:normal;font-weight:100;font-stretch:normal;font-size:15.97033691px;line-height:1.25;font-family:Manjari;-inkscape-font-specification:'Manjari Thin';letter-spacing:0px;word-spacing:0px;fill:#666666;fill-opacity:1;stroke:#666666;stroke-width:0.24590048;stroke-miterlimit:4;stroke-dasharray:none;stroke-opacity:1"
         id="text2538">
        <path
           d="m 106.6451,-1249.7306 c -0.16375,0 -0.29632,0.1326 -0.29632,0.2963 v 10.2076 c 0,0.1638 0.13257,0.2964 0.29632,0.2964 0.16376,0 0.28853,-0.1326 0.28853,-0.2964 v -10.2076 c 0,-0.1637 -0.12477,-0.2963 -0.28853,-0.2963 z"
           style="font-style:normal;font-variant:normal;font-weight:100;font-stretch:normal;font-family:Manjari;-inkscape-font-specification:'Manjari Thin';fill:#666666;fill-opacity:1;stroke:#666666;stroke-width:0.24590048;stroke-miterlimit:4;stroke-dasharray:none;stroke-opacity:1"
           id="path895"
           inkscape:connector-curvature="0" />
      </g>
      <g
         transform="translate(2.3785878,-71.393889)"
         aria-label="t"
         style="font-style:normal;font-variant:normal;font-weight:100;font-stretch:normal;font-size:15.97033691px;line-height:1.25;font-family:Manjari;-inkscape-font-specification:'Manjari Thin';letter-spacing:0px;word-spacing:0px;fill:#666666;fill-opacity:1;stroke:#666666;stroke-width:0.24590048;stroke-miterlimit:4;stroke-dasharray:none;stroke-opacity:1"
         id="text2542">
        <path
           d="m 112.35014,-1238.907 c 0.48348,0 0.92017,-0.1872 1.25548,-0.4445 0.0624,-0.047 0.12477,-0.156 0.12477,-0.234 0,-0.1637 -0.13257,-0.2963 -0.29632,-0.2963 -0.0546,0 -0.13257,0.031 -0.17936,0.062 -0.26513,0.2027 -0.57705,0.3197 -0.95915,0.3197 -0.73302,0 -0.99815,-0.538 -0.99815,-1.3023 v -0.01 l 0.0156,-5.4976 h 1.64538 c 0.16376,0 0.28852,-0.1325 0.28852,-0.2963 0,-0.1637 -0.12476,-0.2885 -0.28852,-0.2885 h -1.63759 v -2.0197 c 0,-0.1637 -0.12476,-0.2963 -0.28852,-0.2963 -0.16376,0 -0.29633,0.1326 -0.29633,0.2963 v 2.0197 h -1.59859 c -0.16376,0 -0.29633,0.1326 -0.29633,0.2963 0,0.1638 0.13257,0.2885 0.29633,0.2885 h 1.59079 l -0.0156,5.4976 v 0.055 c 0,1.0918 0.55366,1.8482 1.63758,1.8482 z"
           style="font-style:normal;font-variant:normal;font-weight:100;font-stretch:normal;font-family:Manjari;-inkscape-font-specification:'Manjari Thin';fill:#666666;fill-opacity:1;stroke:#666666;stroke-width:0.24590048;stroke-miterlimit:4;stroke-dasharray:none;stroke-opacity:1"
           id="path898"
           inkscape:connector-curvature="0" />
      </g>
      <g
         transform="translate(2.3785878,-71.393889)"
         aria-label="y"
         style="font-style:normal;font-variant:normal;font-weight:100;font-stretch:normal;font-size:15.97033691px;line-height:1.25;font-family:Manjari;-inkscape-font-specification:'Manjari Thin';letter-spacing:0px;word-spacing:0px;fill:#666666;fill-opacity:1;stroke:#666666;stroke-width:0.24590048;stroke-miterlimit:4;stroke-dasharray:none;stroke-opacity:1"
         id="text2546">
        <path
           d="m 126.88411,-1246.9 c -0.16376,0 -0.29633,0.1326 -0.29633,0.2963 0,0.039 0.0156,0.094 0.0312,0.1248 l 3.5169,7.5485 -0.53806,1.349 c -0.3899,0.967 -0.99815,2.0197 -2.25363,2.0197 -0.16376,0 -0.28852,0.1326 -0.28852,0.2964 0,0.1637 0.12476,0.2885 0.28852,0.2885 1.52062,0 2.33941,-1.2711 2.79169,-2.3862 l 3.66507,-9.1315 c 0.0156,-0.031 0.0234,-0.086 0.0234,-0.117 0,-0.1637 -0.12476,-0.2885 -0.28852,-0.2885 -0.11697,0 -0.23394,0.086 -0.27293,0.1872 l -2.82289,7.0416 -3.29076,-7.0494 c -0.039,-0.094 -0.15596,-0.1794 -0.26513,-0.1794 z"
           style="font-style:normal;font-variant:normal;font-weight:100;font-stretch:normal;font-family:Manjari;-inkscape-font-specification:'Manjari Thin';fill:#666666;fill-opacity:1;stroke:#666666;stroke-width:0.24590048;stroke-miterlimit:4;stroke-dasharray:none;stroke-opacity:1"
           id="path901"
           inkscape:connector-curvature="0" />
      </g>
      <g
         transform="translate(2.3785878,-71.393889)"
         aria-label="h"
         style="font-style:normal;font-variant:normal;font-weight:100;font-stretch:normal;font-size:15.97033691px;line-height:1.25;font-family:Manjari;-inkscape-font-specification:'Manjari Thin';letter-spacing:0px;word-spacing:0px;fill:#666666;fill-opacity:1;stroke:#666666;stroke-width:0.24590048;stroke-miterlimit:4;stroke-dasharray:none;stroke-opacity:1"
         id="text2550">
        <path
           d="m 115.63779,-1249.4502 v 10.2544 c 0,0.1637 0.13256,0.2963 0.29632,0.2963 0.16376,0 0.28853,-0.1326 0.28853,-0.2963 v -3.5247 c 0,-1.2945 0.88118,-2.5578 1.82474,-3.1816 0.3899,-0.2573 0.84218,-0.4055 1.29447,-0.4055 1.74675,0 2.26142,1.622 2.26142,3.4077 l -0.008,3.6963 c -0.008,0.1949 0.14816,0.2885 0.29633,0.2885 0.14816,0 0.28852,-0.094 0.28852,-0.2807 l 0.008,-3.7041 c 0,-2.1366 -0.74861,-4.0004 -2.85407,-4.0004 -0.59265,0 -1.13071,0.195 -1.60639,0.5069 -0.65504,0.4289 -1.13851,1.0449 -1.50502,1.7468 v -4.7958 c 0.008,-0.195 -0.14037,-0.2885 -0.28853,-0.2885 -0.14816,0 -0.29632,0.093 -0.29632,0.2807 z"
           style="font-style:normal;font-variant:normal;font-weight:100;font-stretch:normal;font-family:Manjari;-inkscape-font-specification:'Manjari Thin';fill:#666666;fill-opacity:1;stroke:#666666;stroke-width:0.24590048;stroke-miterlimit:4;stroke-dasharray:none;stroke-opacity:1"
           id="path904"
           inkscape:connector-curvature="0" />
      </g>
      <g
         transform="translate(2.3785878,-71.393889)"
         aria-label="l"
         style="font-style:normal;font-variant:normal;font-weight:100;font-stretch:normal;font-size:15.97033691px;line-height:1.25;font-family:Manjari;-inkscape-font-specification:'Manjari Thin';letter-spacing:0px;word-spacing:0px;fill:#666666;fill-opacity:1;stroke:#666666;stroke-width:0.24590048;stroke-miterlimit:4;stroke-dasharray:none;stroke-opacity:1"
         id="text2554">
        <path
           d="m 124.39185,-1249.7306 c -0.16376,0 -0.29633,0.1326 -0.29633,0.2963 v 10.2076 c 0,0.1638 0.13257,0.2964 0.29633,0.2964 0.16375,0 0.28852,-0.1326 0.28852,-0.2964 v -10.2076 c 0,-0.1637 -0.12477,-0.2963 -0.28852,-0.2963 z"
           style="font-style:normal;font-variant:normal;font-weight:100;font-stretch:normal;font-family:Manjari;-inkscape-font-specification:'Manjari Thin';fill:#666666;fill-opacity:1;stroke:#666666;stroke-width:0.24590048;stroke-miterlimit:4;stroke-dasharray:none;stroke-opacity:1"
           id="path907"
           inkscape:connector-curvature="0" />
      </g>
    </g>
    <text
       xml:space="preserve"
       style="font-style:normal;font-variant:normal;font-weight:normal;font-stretch:normal;font-size:7.05555534px;line-height:1.25;font-family:monospace;-inkscape-font-specification:monospace;letter-spacing:0px;word-spacing:0px;fill:#000000;fill-opacity:1;stroke:none;stroke-width:0.26458332"
       x="81.790863"
       y="-1316.0405"
       id="text930"><tspan
         sodipodi:role="line"
         id="tspan928"
         x="81.790863"
         y="-1309.798"
         style="stroke-width:0.26458332" /></text>
  </g>
</svg>
