<?xml version="1.0" encoding="UTF-8" standalone="no"?><!DOCTYPE svg PUBLIC "-//W3C//DTD SVG 1.1//EN" "http://www.w3.org/Graphics/SVG/1.1/DTD/svg11.dtd"><svg width="100%" height="100%" viewBox="0 0 1446 400" version="1.1" xmlns="http://www.w3.org/2000/svg" xmlns:xlink="http://www.w3.org/1999/xlink" xml:space="preserve" xmlns:serif="http://www.serif.com/" style="fill-rule:evenodd;clip-rule:evenodd;stroke-linejoin:round;stroke-miterlimit:2;"><g id="Layer-1" serif:id="Layer 1"><g id="g954"><g id="g2526"><path id="path2520" d="M575.496,77.415c-0.004,0 -0.008,0 -0.012,0c-58.883,0 -107.337,48.454 -107.337,107.337c0,0 0,0.001 0,0.001c0.001,58.882 48.454,107.334 107.336,107.334l107.336,0l0,-107.334c0.001,-58.879 -48.445,-107.33 -107.323,-107.338Zm0,22.636c46.459,0.004 84.687,38.235 84.687,84.694l0,84.694l-84.7,0c-46.456,-0.004 -84.683,-38.23 -84.687,-84.686c0,-0.003 0,-0.005 0,-0.008c0,-46.462 38.232,-84.694 84.694,-84.694c0.002,0 0.004,0 0.006,0Z" style="fill:#228ec2;fill-rule:nonzero;stroke:#228ec2;stroke-width:9.17px;"/><g id="text2524"><path id="path886" d="M585.418,194.555l0,35.713l-19.782,0l0,-35.713l-34.925,0l0,-19.607l34.925,0l0,-35.713l19.782,0l0,35.713l35.188,0l0,19.607l-35.188,0Z" style="fill:#228ec2;fill-rule:nonzero;stroke:#228ec2;stroke-width:2px;"/></g></g><g id="text2530"><path id="path889" d="M8.926,15.833l0,266.128c0,4.248 3.44,7.689 7.69,7.689c4.25,0 7.488,-3.441 7.488,-7.689l0,-91.475c0,-33.596 22.869,-66.382 47.357,-82.571c10.118,-6.677 21.856,-10.524 33.594,-10.524c45.333,0 58.69,42.095 58.69,88.439l-0.202,95.928c-0.203,5.058 3.845,7.488 7.69,7.488c3.845,0 7.488,-2.44 7.488,-7.285l0.202,-96.131c0,-55.45 -19.428,-103.821 -74.07,-103.821c-15.381,0 -29.345,5.061 -41.69,13.156c-17,11.131 -29.547,27.118 -39.059,45.334l0,-124.464c0.202,-5.06 -3.643,-7.487 -7.488,-7.487c-3.845,0 -7.69,2.414 -7.69,7.285Z" style="fill:#666;fill-rule:nonzero;stroke:#666;stroke-width:16.22px;stroke-linejoin:miter;stroke-miterlimit:4;"/></g><g id="text2534"><path id="path892" d="M331.631,291.882c30.559,0 60.511,-13.965 79.939,-37.644c1.012,-1.22 1.821,-3.236 1.821,-4.855c0,-4.251 -3.238,-7.69 -7.488,-7.69c-2.023,0 -4.857,1.22 -6.071,2.831c-16.393,20.036 -42.499,32.179 -68.404,32.179c-48.571,0 -86.011,-39.464 -89.451,-85.605l170.605,-0.259c7.69,0 7.893,-8.097 7.893,-15.787c0,-52.417 -42.905,-94.512 -94.309,-94.512c-56.059,0 -99.57,48.573 -99.57,103.821c0,58.487 46.345,107.464 105.034,107.464l0.001,0.057Zm73.665,-116.571l0,0.416l-163.117,0.259c4.048,-42.905 38.452,-80.141 83.785,-80.141c43.309,0 79.332,35.415 79.332,79.534l0,-0.068Z" style="fill:#666;fill-rule:nonzero;stroke:#666;stroke-width:16.22px;stroke-linejoin:miter;stroke-miterlimit:4;"/></g><g id="text2538"><path id="path895" d="M738.182,8.556c-4.249,0 -7.69,3.441 -7.69,7.69l0,264.913c0,4.251 3.441,7.692 7.69,7.692c4.25,0 7.488,-3.441 7.488,-7.692l0,-264.913c0,-4.249 -3.238,-7.69 -7.488,-7.69Z" style="fill:#666;fill-rule:nonzero;stroke:#666;stroke-width:16.22px;stroke-linejoin:miter;stroke-miterlimit:4;"/></g><g id="text2542"><path id="path898" d="M884.413,289.456c12.548,0 23.881,-4.858 32.583,-11.536c1.62,-1.22 3.238,-4.049 3.238,-6.073c0,-4.248 -3.44,-7.69 -7.69,-7.69c-1.417,0 -3.44,0.805 -4.655,1.609c-6.881,5.261 -14.976,8.297 -24.892,8.297c-19.024,0 -25.905,-13.962 -25.905,-33.798l0,-0.259l0.405,-142.677l42.702,0c4.25,0 7.488,-3.439 7.488,-7.69c0,-4.248 -3.238,-7.487 -7.488,-7.487l-42.5,0l0,-52.416c0,-4.249 -3.237,-7.69 -7.487,-7.69c-4.25,0 -7.691,3.441 -7.691,7.69l0,52.416l-41.487,0c-4.25,0 -7.691,3.441 -7.691,7.69c0,4.251 3.441,7.487 7.691,7.487l41.285,0l-0.405,142.677l0,1.427c0,28.335 14.369,47.966 42.499,47.966l0,0.057Z" style="fill:#666;fill-rule:nonzero;stroke:#666;stroke-width:16.22px;stroke-linejoin:miter;stroke-miterlimit:4;"/></g><g id="text2546"><path id="path901" d="M1256.12,82.017c-4.25,0 -7.691,3.441 -7.691,7.69c0,1.012 0.405,2.439 0.81,3.239l91.273,195.903l-13.964,35.01c-10.119,25.096 -25.905,52.416 -58.488,52.416c-4.25,0 -7.488,3.441 -7.488,7.692c0,4.249 3.238,7.488 7.488,7.488c39.464,0 60.714,-32.989 72.452,-61.928l95.117,-236.986c0.405,-0.805 0.608,-2.232 0.608,-3.037c0,-4.248 -3.238,-7.487 -7.488,-7.487c-3.036,0 -6.071,2.232 -7.083,4.858l-73.261,182.748l-85.404,-182.95c-1.012,-2.439 -4.048,-4.656 -6.881,-4.656l0,0Z" style="fill:#666;fill-rule:nonzero;stroke:#666;stroke-width:16.22px;stroke-linejoin:miter;stroke-miterlimit:4;"/></g><g id="text2550"><path id="path904" d="M967.907,15.833l0,266.128c0,4.248 3.44,7.689 7.69,7.689c4.25,0 7.488,-3.441 7.488,-7.689l0,-91.475c0,-33.596 22.869,-66.382 47.357,-82.571c10.119,-6.677 21.857,-10.524 33.595,-10.524c45.332,0 58.689,42.095 58.689,88.439l-0.207,95.928c-0.208,5.058 3.845,7.488 7.69,7.488c3.845,0 7.488,-2.44 7.488,-7.285l0.208,-96.131c0,-55.45 -19.429,-103.821 -74.071,-103.821c-15.38,0 -29.344,5.061 -41.69,13.156c-17,11.131 -29.547,27.118 -39.059,45.334l0,-124.464c0.208,-5.06 -3.643,-7.487 -7.488,-7.487c-3.845,0 -7.69,2.414 -7.69,7.285Z" style="fill:#666;fill-rule:nonzero;stroke:#666;stroke-width:16.22px;stroke-linejoin:miter;stroke-miterlimit:4;"/></g><g id="text2554"><path id="path907" d="M1193.27,8.556c-4.25,0 -7.691,3.441 -7.691,7.69l0,264.913c0,4.251 3.441,7.692 7.691,7.692c4.25,0 7.488,-3.441 7.488,-7.692l0,-264.913c0,-4.249 -3.238,-7.69 -7.488,-7.69Z" style="fill:#666;fill-rule:nonzero;stroke:#666;stroke-width:16.22px;stroke-linejoin:miter;stroke-miterlimit:4;"/></g></g><g id="text930"></g></g></svg>