<svg width="53" height="48" viewBox="0 0 53 48" fill="none" xmlns="http://www.w3.org/2000/svg">
<path fill-rule="evenodd" clip-rule="evenodd" d="M26.6808 42.351C24.1986 40.2777 20.803 37.1284 17.558 33.4792H11.288C17.4193 41.1792 24.7008 46.9136 25.2245 47.3225C25.655 47.6573 26.1739 47.8271 26.6928 47.8271C27.2117 47.8271 27.7306 47.6573 28.161 47.3225C28.6297 46.9566 34.4908 42.3366 40.108 35.8706H33.618C30.8273 38.7449 28.2256 41.0453 26.6808 42.351Z" fill="#228EC2"/>
<path fill-rule="evenodd" clip-rule="evenodd" d="M7.81104 16.7391C7.66278 15.9309 7.56235 15.1298 7.56235 14.3478C7.56235 8.53696 11.3167 4.78261 17.1276 4.78261C20.21 4.78261 22.7519 7.02804 23.7897 9.56522H29.5934C30.6337 7.02804 33.1756 4.78261 36.258 4.78261C42.0689 4.78261 45.8232 8.53696 45.8232 14.3478C45.8232 15.9093 45.5052 17.5139 44.9863 19.1304H49.9171C50.3308 17.533 50.6058 15.9333 50.6058 14.3478C50.6058 5.89935 44.7065 0 36.258 0C32.4463 0 28.9143 2.00152 26.6928 4.97391C24.4713 2.00152 20.9393 0 17.1276 0C8.67909 0 2.77974 5.89935 2.77974 14.3478C2.77974 15.1417 2.87061 15.9404 2.97822 16.7391H7.81104Z" fill="#228EC2"/>
<path fill-rule="evenodd" clip-rule="evenodd" d="M45.0994 23.9131L39.1474 27.8802L29.2833 15.5507L19.5196 25.3144L12.3457 18.1404L6.57306 23.9131H0.389145V28.6957H8.55306L12.3457 24.9054L19.5196 32.0794L28.8863 22.7102L38.1526 34.2937L46.5461 28.6957H52.9978V23.9131H45.0994Z" fill="#228EC2"/>
</svg>
