<svg width="45" height="52" viewBox="0 0 45 52" fill="none" xmlns="http://www.w3.org/2000/svg">
<path fill-rule="evenodd" clip-rule="evenodd" d="M40.5216 47H27.093V29.0952H40.5216V47ZM4.71203 17.9048H4.76351C6.80465 20.6084 10.0141 22.381 13.6644 22.381C17.3125 22.381 20.5219 20.6084 22.5653 17.9048H22.6168V47H15.9025V42.5238H11.4263V47H4.71203V17.9048ZM6.95013 8.95238H11.4263V4.47619H15.9025V8.95238H20.3787V13.4286H15.9025V17.9048H11.4263V13.4286H7.13589H6.95013V8.95238ZM42.7597 24.619H27.093V15.6667C27.093 14.4312 26.0903 13.4286 24.8549 13.4286H24.6288C24.7766 12.7057 24.8549 11.9581 24.8549 11.1905C24.8549 5.00662 19.8438 0 13.6644 0C7.48503 0 2.47394 5.00662 2.47394 11.1905C2.47394 11.9581 2.55227 12.7057 2.69774 13.4286H2.47394C1.23851 13.4286 0.23584 14.4312 0.23584 15.6667V49.2381C0.23584 50.4735 1.23851 51.4762 2.47394 51.4762H42.7597C43.9951 51.4762 44.9977 50.4735 44.9977 49.2381V26.8571C44.9977 25.6217 43.9951 24.619 42.7597 24.619Z" fill="#72D988"/>
</svg>
