<svg width="217" height="109" viewBox="0 0 217 109" fill="none" xmlns="http://www.w3.org/2000/svg">
<g filter="url(#filter0_dd)">
<rect x="20" y="18" width="177" height="69" rx="7" fill="white"/>
</g>
<mask id="mask0" mask-type="alpha" maskUnits="userSpaceOnUse" x="138" y="35" width="37" height="38">
<path fill-rule="evenodd" clip-rule="evenodd" d="M138.449 35.2125H174.971V72.1669H138.449V35.2125Z" fill="white"/>
</mask>
<g mask="url(#mask0)">
<path fill-rule="evenodd" clip-rule="evenodd" d="M174.971 68.4726C174.971 70.5128 173.323 72.1669 171.289 72.1669H142.131C140.097 72.1669 138.449 70.5128 138.449 68.4726V38.9069C138.449 36.8664 140.097 35.2125 142.131 35.2125H171.289C173.323 35.2125 174.971 36.8664 174.971 38.9069V68.4726Z" fill="#006699"/>
</g>
<path fill-rule="evenodd" clip-rule="evenodd" d="M45 42.6638H49.9137V60.3145H58.5771V64.4524H45V42.6638Z" fill="black"/>
<mask id="mask1" mask-type="alpha" maskUnits="userSpaceOnUse" x="45" y="35" width="130" height="38">
<path fill-rule="evenodd" clip-rule="evenodd" d="M45 72.1668H174.971V35.2124H45V72.1668Z" fill="white"/>
</mask>
<g mask="url(#mask1)">
<path fill-rule="evenodd" clip-rule="evenodd" d="M60.3215 64.4524H65.2354V48.6447H60.3215V64.4524ZM65.3968 44.2483C65.3968 45.6056 64.3946 46.7049 62.746 46.7049C61.1943 46.7049 60.1921 45.6056 60.1921 44.2483C60.1921 42.8582 61.2268 41.7914 62.8108 41.7914C64.3946 41.7914 65.3647 42.8582 65.3968 44.2483V44.2483Z" fill="black"/>
<path fill-rule="evenodd" clip-rule="evenodd" d="M68.1758 53.6874C68.1758 51.7157 68.1112 50.0673 68.0466 48.6446H72.3135L72.5401 50.8429H72.6372C73.2836 49.8082 74.8676 48.2888 77.5182 48.2888C80.7512 48.2888 83.1759 50.455 83.1759 55.1099V64.4523H78.2618V55.6917C78.2618 53.6553 77.5509 52.2654 75.7729 52.2654C74.4151 52.2654 73.6069 53.2028 73.2511 54.1077C73.1219 54.4308 73.0899 54.8835 73.0899 55.3364V64.4523H68.1758V53.6874Z" fill="black"/>
<path fill-rule="evenodd" clip-rule="evenodd" d="M91.0301 55.3039H91.0947C91.4505 54.625 91.8383 53.9786 92.2262 53.3968L95.4265 48.6445H101.342L95.685 55.0451L102.15 64.4523H96.1054L92.2583 57.9546L91.0301 59.5061V64.4523H86.1162V41.5005H91.0301V55.3039Z" fill="black"/>
<path fill-rule="evenodd" clip-rule="evenodd" d="M111.751 54.7541C111.751 53.5582 111.234 51.5538 108.971 51.5538C106.902 51.5538 106.061 53.4616 105.932 54.7541H111.751ZM105.964 58.1163C106.094 60.1527 108.13 61.1226 110.425 61.1226C112.106 61.1226 113.464 60.8962 114.79 60.4438L115.436 63.7734C113.819 64.4523 111.848 64.7756 109.714 64.7756C104.348 64.7756 101.277 61.6724 101.277 56.7262C101.277 52.7179 103.766 48.2888 109.261 48.2888C114.369 48.2888 116.309 52.2654 116.309 56.1767C116.309 57.017 116.212 57.7605 116.147 58.1163H105.964Z" fill="black"/>
<path fill-rule="evenodd" clip-rule="evenodd" d="M128.656 55.3364C128.656 55.0773 128.656 54.7219 128.591 54.4309C128.301 53.1383 127.234 52.0391 125.715 52.0391C123.452 52.0391 122.32 54.0432 122.32 56.5326C122.32 59.2152 123.646 60.8963 125.682 60.8963C127.105 60.8963 128.268 59.9266 128.559 58.5367C128.624 58.1812 128.656 57.7933 128.656 57.4054V55.3364ZM133.57 41.5004V59.7327C133.57 61.5104 133.635 63.3858 133.7 64.4524H129.335L129.141 62.157H129.045C128.075 63.9026 126.135 64.8084 124.098 64.8084C120.349 64.8084 117.342 61.6077 117.342 56.694C117.31 51.36 120.64 48.2568 124.422 48.2568C126.394 48.2568 127.881 48.9679 128.591 50.0347H128.656V41.5004H133.57Z" fill="black"/>
<path fill-rule="evenodd" clip-rule="evenodd" d="M145.255 64.4524H150.168V48.6447H145.255V64.4524ZM150.329 44.2483C150.329 45.6056 149.328 46.7049 147.679 46.7049C146.127 46.7049 145.125 45.6056 145.125 44.2483C145.125 42.8582 146.16 41.7914 147.744 41.7914C149.328 41.7914 150.297 42.8582 150.329 44.2483V44.2483Z" fill="white"/>
<path fill-rule="evenodd" clip-rule="evenodd" d="M153.109 53.6874C153.109 51.7157 153.044 50.0673 152.98 48.6446H157.247L157.473 50.8429H157.57C158.217 49.8082 159.801 48.2888 162.451 48.2888C165.684 48.2888 168.108 50.455 168.108 55.1099V64.4523H163.195V55.6917C163.195 53.6553 162.484 52.2654 160.706 52.2654C159.348 52.2654 158.54 53.2028 158.184 54.1077C158.055 54.4308 158.022 54.8835 158.022 55.3364V64.4523H153.109V53.6874Z" fill="white"/>
</g>
<defs>
<filter id="filter0_dd" x="0" y="0" width="217" height="109" filterUnits="userSpaceOnUse" color-interpolation-filters="sRGB">
<feFlood flood-opacity="0" result="BackgroundImageFix"/>
<feColorMatrix in="SourceAlpha" type="matrix" values="0 0 0 0 0 0 0 0 0 0 0 0 0 0 0 0 0 0 127 0"/>
<feOffset dy="2"/>
<feGaussianBlur stdDeviation="10"/>
<feColorMatrix type="matrix" values="0 0 0 0 0 0 0 0 0 0 0 0 0 0 0 0 0 0 0.05 0"/>
<feBlend mode="normal" in2="BackgroundImageFix" result="effect1_dropShadow"/>
<feColorMatrix in="SourceAlpha" type="matrix" values="0 0 0 0 0 0 0 0 0 0 0 0 0 0 0 0 0 0 127 0"/>
<feOffset dy="2"/>
<feGaussianBlur stdDeviation="5"/>
<feColorMatrix type="matrix" values="0 0 0 0 0 0 0 0 0 0 0 0 0 0 0 0 0 0 0.1 0"/>
<feBlend mode="normal" in2="effect1_dropShadow" result="effect2_dropShadow"/>
<feBlend mode="normal" in="SourceGraphic" in2="effect2_dropShadow" result="shape"/>
</filter>
</defs>
</svg>
