<svg width="51" height="51" viewBox="0 0 51 51" fill="none" xmlns="http://www.w3.org/2000/svg">
<path fill-rule="evenodd" clip-rule="evenodd" d="M43.4255 15.1403C42.0349 15.1403 40.9017 14.0097 40.9017 12.619C40.9017 11.2284 42.0349 10.0952 43.4255 10.0952C44.8162 10.0952 45.9494 11.2284 45.9494 12.619C45.9494 14.0097 44.8162 15.1403 43.4255 15.1403ZM50.997 12.619C50.997 8.44467 47.5999 5.04762 43.4255 5.04762C39.2512 5.04762 35.8541 8.44467 35.8541 12.619C35.8541 15.905 37.9691 18.6787 40.9017 19.7236V42.9022C40.9017 44.2954 39.7685 45.426 38.3779 45.426C36.9873 45.426 35.8541 44.2954 35.8541 42.9022C35.8541 38.7279 32.4571 35.3308 28.2827 35.3308C24.1083 35.3308 20.7113 38.7279 20.7113 42.9022C20.7113 43.5988 20.1459 44.1641 19.4494 44.1641C18.7528 44.1641 18.1874 43.5988 18.1874 42.9022V35.1037C25.3374 33.8973 30.8065 27.6786 30.8065 20.188V5.04762C30.8065 3.65448 29.6758 2.52381 28.2827 2.52381H23.2351V0H18.1874V10.0952H23.2351V7.57143H25.7589V20.188C25.7589 25.7555 21.2312 30.2832 15.6636 30.2832C10.0961 30.2832 5.5684 25.7555 5.5684 20.188V7.57143H8.09221V10.0952H13.1398V0H8.09221V2.52381H3.04459C1.65145 2.52381 0.520782 3.65448 0.520782 5.04762V20.188C0.520782 27.6786 5.98988 33.8973 13.1398 35.1037V42.9022C13.1398 46.3826 15.9715 49.2118 19.4494 49.2118C22.9272 49.2118 25.7589 46.3826 25.7589 42.9022C25.7589 41.5116 26.8921 40.3784 28.2827 40.3784C29.6733 40.3784 30.8065 41.5116 30.8065 42.9022C30.8065 47.0766 34.2035 50.4737 38.3779 50.4737C42.5523 50.4737 45.9494 47.0766 45.9494 42.9022V19.7236C48.8795 18.6787 50.997 15.905 50.997 12.619Z" fill="#EE7922"/>
</svg>
