<?xml version="1.0" standalone="no"?>
<!DOCTYPE svg PUBLIC "-//W3C//DTD SVG 20010904//EN"
 "http://www.w3.org/TR/2001/REC-SVG-20010904/DTD/svg10.dtd">
<svg version="1.0" xmlns="http://www.w3.org/2000/svg"
 width="729.000000pt" height="729.000000pt" viewBox="0 0 729.000000 729.000000"
 preserveAspectRatio="xMidYMid meet">
<metadata>
Created by potrace 1.11, written by Peter Selinger 2001-2013
</metadata>
<g transform="translate(0.000000,729.000000) scale(0.100000,-0.100000)"
fill="#000000" stroke="none">
<path d="M3416 7273 c-2 -2 -39 -6 -82 -9 -44 -3 -90 -7 -104 -10 -14 -2 -47
-6 -75 -9 -27 -3 -72 -10 -100 -15 -27 -5 -61 -12 -75 -14 -14 -3 -25 -5 -25
-6 0 -1 -15 -3 -34 -6 -19 -2 -53 -9 -75 -15 -23 -6 -52 -13 -66 -14 -14 -2
-53 -12 -87 -23 -34 -11 -65 -17 -68 -14 -3 3 -5 0 -5 -7 0 -7 -4 -10 -8 -7
-10 6 -261 -81 -357 -123 -86 -39 -136 -60 -141 -60 -2 0 -24 -11 -48 -25 -24
-14 -46 -22 -50 -19 -3 3 -6 1 -6 -5 0 -7 -6 -12 -14 -12 -8 0 -22 -7 -30 -16
-9 -8 -16 -13 -16 -9 0 7 -57 -23 -82 -44 -10 -8 -18 -10 -18 -5 0 5 -4 4 -8
-2 -4 -6 -33 -26 -65 -45 -86 -50 -87 -51 -152 -94 -33 -22 -61 -43 -63 -47
-2 -5 -10 -8 -17 -8 -7 0 -15 -4 -17 -9 -1 -5 -21 -21 -44 -37 -61 -43 -145
-108 -179 -139 -16 -14 -40 -33 -52 -42 -13 -8 -20 -19 -17 -24 3 -5 1 -8 -3
-7 -12 4 -139 -112 -135 -123 1 -5 -4 -8 -10 -7 -7 2 -12 -3 -10 -10 1 -8 -2
-11 -7 -8 -10 7 -33 -18 -26 -27 3 -4 2 -5 -1 -3 -5 4 -64 -49 -64 -58 0 -1
-18 -23 -41 -47 -23 -24 -77 -89 -120 -144 -43 -55 -86 -107 -94 -116 -8 -9
-15 -21 -15 -27 0 -5 -3 -12 -8 -14 -13 -5 -82 -105 -82 -119 0 -7 -3 -9 -6
-6 -4 4 -14 -7 -23 -23 -9 -17 -39 -70 -68 -118 -97 -166 -141 -251 -203 -392
-18 -41 -38 -88 -45 -105 -34 -76 -106 -285 -111 -320 0 -5 -4 -17 -7 -25 -9
-24 -27 -85 -31 -106 -2 -10 -11 -46 -19 -79 -18 -67 -20 -76 -47 -229 -10
-60 -19 -111 -18 -115 1 -3 -2 -22 -5 -41 -4 -19 -9 -64 -12 -100 -3 -36 -8
-99 -13 -140 -8 -89 -8 -313 0 -425 12 -139 19 -213 24 -237 2 -13 7 -45 10
-72 3 -27 10 -59 14 -72 5 -12 7 -24 4 -27 -3 -2 0 -24 6 -48 6 -24 12 -55 15
-69 2 -14 11 -54 20 -90 9 -36 18 -75 21 -88 2 -12 21 -75 40 -140 20 -64 37
-124 39 -132 2 -8 31 -82 65 -165 34 -82 64 -158 67 -167 3 -10 10 -18 15 -18
5 0 7 -4 3 -9 -3 -5 2 -17 11 -25 8 -9 13 -16 10 -16 -4 0 11 -33 32 -72 84
-156 116 -213 121 -218 8 -7 29 -40 44 -70 6 -14 20 -34 29 -44 10 -11 18 -24
18 -28 0 -5 5 -14 10 -21 37 -44 50 -61 50 -66 0 -3 11 -19 25 -34 14 -15 23
-27 20 -27 -4 0 0 -6 7 -13 7 -8 31 -37 53 -65 21 -29 43 -52 48 -52 4 0 6 -4
3 -8 -3 -5 8 -21 25 -36 16 -15 29 -32 29 -37 0 -6 4 -7 10 -4 6 3 10 0 10 -7
0 -19 224 -251 234 -241 4 4 6 3 4 -2 -4 -14 27 -45 147 -143 55 -45 107 -88
115 -96 8 -7 40 -31 70 -52 30 -21 57 -41 60 -44 3 -3 12 -9 22 -15 29 -17
172 -114 185 -125 6 -5 42 -26 80 -46 37 -19 91 -48 118 -63 28 -16 53 -27 58
-24 4 2 7 0 7 -6 0 -10 38 -27 53 -23 4 1 7 -2 7 -6 0 -5 19 -16 42 -26 24
-10 58 -24 76 -32 97 -42 226 -94 247 -100 6 -1 37 -12 70 -23 33 -12 67 -23
75 -25 8 -3 33 -9 55 -14 22 -6 66 -18 99 -27 32 -9 70 -18 85 -20 14 -3 53
-12 86 -20 33 -8 78 -17 100 -20 22 -3 65 -10 95 -15 30 -6 78 -13 105 -16 28
-3 70 -8 95 -11 25 -4 933 -8 2018 -10 l1972 -4 -3 1848 c-3 1702 -6 2006 -22
2118 -3 22 -8 66 -11 98 -3 32 -14 107 -25 165 -11 59 -20 114 -20 122 -1 19
-80 329 -92 360 -3 8 -11 33 -17 55 -6 22 -15 49 -20 60 -4 11 -16 43 -25 70
-21 59 -29 78 -86 210 -63 145 -193 394 -212 406 -5 3 -9 10 -10 15 -1 15 -39
74 -46 74 -4 0 -8 6 -8 13 0 10 -136 213 -153 227 -3 3 -27 33 -53 67 -26 34
-55 66 -63 71 -9 5 -16 13 -16 18 0 5 -18 29 -40 54 -68 75 -188 200 -188 195
0 -3 -19 16 -41 40 -23 25 -46 42 -53 38 -6 -3 -8 -3 -4 2 4 4 -1 15 -11 24
-134 117 -289 241 -301 241 -5 0 -15 6 -22 13 -36 36 -326 217 -348 217 -5 0
-10 4 -12 9 -1 5 -10 11 -18 13 -8 2 -17 5 -20 8 -6 7 -147 76 -235 115 -113
51 -411 161 -460 171 -5 1 -37 9 -70 18 -62 17 -82 22 -125 31 -14 3 -59 12
-100 20 -41 8 -86 17 -100 20 -43 9 -144 23 -160 23 -8 0 -31 2 -50 5 -97 15
-185 20 -398 22 -127 1 -234 0 -236 -2z"/>
</g>
</svg>
